<svg width="177" height="18" viewBox="0 0 177 18" fill="none" xmlns="http://www.w3.org/2000/svg">
<g clip-path="url(#clip0_439_1338)">
<path d="M0 17.6716C0.166622 17.4695 0.24816 17.3455 0.354514 17.2462C5.70059 11.9994 11.0467 6.75257 16.3963 1.5093C17.3606 0.559202 18.5269 0.0628815 19.8847 0.0628815C22.1961 0.0557912 24.504 0.0628815 26.8155 0.0522461C27.2232 0.0522461 27.3437 0.194052 27.3402 0.591108C27.3295 6.1428 27.326 11.6945 27.3402 17.2462C27.3402 17.6645 27.1842 17.7709 26.7977 17.7673C25.6739 17.7496 24.5501 17.7461 23.4228 17.7673C23.0222 17.7744 22.891 17.6468 22.8945 17.2391C22.9052 12.9956 22.891 8.75203 22.9052 4.50849C22.9052 4.0618 22.7846 3.88455 22.338 3.959C22.2635 3.97318 22.1855 3.959 22.1075 3.959C19.7465 3.99799 20.5122 3.63639 18.7538 5.34869C14.5954 9.39016 10.4511 13.4458 6.28909 17.4873C6.14019 17.6326 5.89558 17.7496 5.6935 17.7532C3.95284 17.7744 2.21217 17.7638 0.471504 17.7602C0.354514 17.7602 0.237525 17.7212 0 17.6822L0 17.6716Z" fill="white"/>
<path d="M51.1552 6.8157C51.3006 6.85824 51.4778 6.94333 51.6622 6.95751C54.4451 7.20921 56.5367 9.42138 56.6537 12.1015C56.792 15.2106 54.3317 17.5079 51.8784 17.7206C51.5877 17.7454 51.2935 17.7489 51.0028 17.7525C49.0955 17.7737 47.1847 17.8092 45.2774 17.8021C41.1047 17.7915 36.9321 17.7525 32.7559 17.7418C32.3411 17.7418 32.2277 17.5929 32.2383 17.1994C32.2631 16.26 32.2667 15.324 32.2383 14.3846C32.2241 13.9379 32.4014 13.8422 32.8055 13.8422C38.2296 13.8493 43.6537 13.8422 49.0778 13.8422C49.7726 13.8422 50.4639 13.8422 51.1588 13.828C51.8607 13.8103 52.1585 13.4983 52.1727 12.7928C52.1798 12.5021 52.1798 12.2079 52.1727 11.9172C52.1585 11.1585 51.8501 10.8501 51.0949 10.8465C49.2763 10.843 47.4576 10.8465 45.639 10.8465C43.9763 10.8465 42.3101 10.8465 40.6474 10.8394C39.2364 10.8394 37.8219 10.8643 36.411 10.8146C34.0676 10.7331 32.0894 9.17677 31.4619 6.98587C30.8061 4.6957 31.6356 2.34527 33.55 0.980393C34.5214 0.289089 35.6027 0.0267487 36.7655 0.0267487C41.913 0.0267487 47.057 0.0302939 52.2046 0.0302939C53.1582 0.0302939 54.1154 0.0196584 55.0691 0.0161133C55.6505 0.0161133 55.6788 0.0409293 55.6788 0.604607C55.6788 1.46608 55.6788 2.32755 55.6788 3.18902C55.6788 3.9335 55.6717 3.9335 54.945 3.9335C52.0486 3.9335 49.1522 3.9335 46.2558 3.92995C43.1432 3.92995 40.0305 3.92995 36.9179 3.92995C36.0245 3.92995 35.7161 4.23838 35.7126 5.11403C35.7126 5.35865 35.7126 5.60681 35.7126 5.85142C35.7197 6.5959 36.0635 6.94333 36.8257 6.94687C38.5203 6.95042 40.2149 6.94687 41.9095 6.94687C44.7456 6.94687 47.5782 6.94687 50.4143 6.93624C50.6447 6.93624 50.8716 6.85824 51.1588 6.80861L51.1552 6.8157Z" fill="white"/>
<path d="M75.488 4.00986C75.488 5.09822 75.488 6.14049 75.488 7.18276C75.488 10.4904 75.4916 13.7945 75.4951 17.1021C75.4951 17.7969 75.4951 17.7969 74.8144 17.8005C73.6764 17.8076 72.5349 17.8288 71.3969 17.8146C71.2728 17.8146 71.1168 17.6445 71.0424 17.5133C70.9821 17.407 71.0247 17.2439 71.0247 17.1056C71.0247 12.8479 71.0247 8.58664 71.0247 4.32892C71.0247 4.23675 71.0247 4.14812 71.0247 4.00631C70.8722 3.99568 70.7446 3.97441 70.6134 3.97441C67.4689 3.97441 64.3279 3.97441 61.1834 3.9815C60.6126 3.9815 60.5807 3.95314 60.5771 3.393C60.5736 2.47126 60.5913 1.54598 60.5594 0.624244C60.5452 0.174011 60.7154 0.0463856 61.1514 0.0463856C67.9617 0.057021 74.7719 0.057021 81.5786 0.0499307C82.8406 0.0499307 84.1027 0.0215696 85.3648 0.000298698C85.8363 -0.00679159 85.9675 0.110198 85.971 0.581702C85.9745 0.996484 85.893 1.43254 85.9923 1.8225C86.1376 2.40036 85.8966 2.94277 85.9675 3.49936C86.0135 3.85742 85.8398 3.99213 85.4853 3.98859C84.3757 3.97795 83.2661 3.98859 82.1564 3.98859C80.0471 3.98859 77.9342 3.98504 75.8248 3.98504C75.7362 3.98504 75.644 3.99568 75.4845 4.00631L75.488 4.00986Z" fill="white"/>
<path d="M115.351 17.6678C115.096 17.6926 114.933 17.7209 114.77 17.7209C113.522 17.7245 112.274 17.7103 111.026 17.7351C110.64 17.7422 110.455 17.5933 110.296 17.2565C109.562 15.7002 108.796 14.1581 108.059 12.6018C107.935 12.343 107.789 12.2437 107.499 12.2437C103.216 12.2579 98.9336 12.2579 94.6511 12.2614C94.5767 12.2614 94.5022 12.2756 94.3959 12.2827C94.3852 12.4316 94.371 12.5628 94.371 12.6939C94.371 14.1864 94.3533 15.6789 94.3781 17.1679C94.3852 17.6181 94.2257 17.7458 93.7932 17.7458C92.6871 17.7458 91.581 17.806 90.4749 17.8131C90.17 17.8131 89.9325 17.7032 89.9396 17.2884C89.9609 15.7357 89.9467 14.1829 89.9467 12.6301C89.9467 8.61701 89.9432 4.60391 89.9467 0.594353C89.9467 0.0235851 89.968 0.00585938 90.5529 0.00585938C96.9448 0.0129497 103.34 0.0129497 109.732 0.0271302C112.806 0.0342205 115.096 2.34211 115.103 5.4122C115.103 5.87307 115.096 6.33394 115.103 6.79481C115.131 8.73046 114.327 10.2407 112.749 11.3397C112.49 11.5205 112.462 11.6552 112.597 11.9282C113.444 13.6511 114.273 15.3847 115.11 17.1147C115.181 17.2636 115.245 17.4161 115.355 17.6642L115.351 17.6678ZM94.3675 8.36176C94.6015 8.36176 94.7681 8.36176 94.9312 8.36176C98.8556 8.36176 102.784 8.36886 106.708 8.3724C107.694 8.3724 108.679 8.38658 109.665 8.3724C110.296 8.36531 110.711 7.98598 110.714 7.44357C110.714 6.67782 110.714 5.91207 110.714 5.14632C110.711 4.23876 110.392 3.91615 109.498 3.91615C106.187 3.91615 102.872 3.91615 99.5611 3.91615C97.9729 3.91615 96.3882 3.91615 94.8 3.9197C94.6157 3.9197 94.371 3.84525 94.371 4.17495C94.371 5.54338 94.371 6.90826 94.371 8.35468L94.3675 8.36176Z" fill="white"/>
<path d="M123.721 3.95403C123.71 4.14192 123.7 4.27664 123.7 4.41135C123.7 8.64071 123.7 12.8701 123.703 17.0994C123.703 17.5414 123.481 17.7635 123.037 17.7659C121.941 17.7659 120.849 17.7588 119.754 17.773C119.374 17.7801 119.254 17.6525 119.254 17.266C119.265 11.7427 119.261 6.22292 119.261 0.699588C119.261 0.0614624 119.261 0.0579172 119.896 0.0543721C122.094 0.0508269 124.295 0.0543721 126.493 0.0401915C128.007 0.0295561 129.269 0.575508 130.347 1.63551C135.632 6.83623 140.932 12.0228 146.225 17.22C146.335 17.3299 146.392 17.4929 146.474 17.6312C146.321 17.6808 146.172 17.7695 146.02 17.7695C144.325 17.7801 142.631 17.7872 140.936 17.7624C140.695 17.7588 140.404 17.6064 140.227 17.4327C137.231 14.5292 134.25 11.6151 131.268 8.70098C129.815 7.28292 128.358 5.86841 126.915 4.43972C126.575 4.10293 126.206 3.93631 125.724 3.95403C125.068 3.97885 124.409 3.96112 123.724 3.96112L123.721 3.95403Z" fill="white"/>
<path d="M162.639 0.750488L168.02 8.90786L162.639 17.0688H170.909L176.291 8.90786L170.909 0.750488H162.639Z" fill="#EE2E35"/>
<path d="M150.373 0.750488L155.755 8.90786L150.373 17.0688H158.644L164.025 8.90786L158.644 0.750488H150.373Z" fill="#EE2E35"/>
</g>
<defs>
<clipPath id="clip0_439_1338">
<rect width="176.292" height="17.8194" fill="white"/>
</clipPath>
</defs>
</svg>
