<svg width="19" height="23" viewBox="0 0 19 23" fill="none" xmlns="http://www.w3.org/2000/svg">
<path d="M0.902344 5.49941V14.4369C0.902344 14.5588 0.942969 14.6807 0.983594 14.7619C1.10547 15.0057 3.62422 20.3682 9.51484 22.8869H9.55547H9.59609C9.67734 22.8869 9.71797 22.9275 9.79922 22.9275C9.88047 22.9275 9.92109 22.9275 10.0023 22.8869H10.043H10.0836C15.9742 20.3682 18.5336 15.0057 18.6148 14.7619C18.6555 14.64 18.6961 14.5588 18.6961 14.4369V5.49941C18.6961 5.13379 18.4523 4.80879 18.0867 4.72754C14.9992 3.95566 10.2461 0.827539 10.2055 0.786914C10.1648 0.746289 10.1242 0.746289 10.043 0.705664C10.0023 0.705664 10.0023 0.705664 9.96172 0.665039C9.92109 0.665039 9.92109 0.665039 9.88047 0.665039C9.83984 0.665039 9.79922 0.665039 9.75859 0.665039H9.71797C9.67734 0.665039 9.63672 0.665039 9.63672 0.665039H9.59609C9.55547 0.665039 9.51484 0.705664 9.47422 0.705664C9.43359 0.746289 9.39297 0.746289 9.31172 0.786914C9.23047 0.827539 4.51797 3.95566 1.43047 4.72754C1.14609 4.80879 0.902344 5.13379 0.902344 5.49941ZM2.52734 6.10879C5.24922 5.25566 8.62109 3.18379 9.83984 2.41191C11.0586 3.18379 14.4305 5.25566 17.1523 6.10879V14.2338C16.7055 15.0869 14.4305 19.1494 9.83984 21.2619C5.24922 19.1494 2.97422 15.0869 2.52734 14.2338V6.10879Z" fill="#FC212F"/>
<path d="M8.45703 14.5994C8.61953 14.7619 8.82266 14.8432 9.02578 14.8432C9.22891 14.8432 9.43203 14.7619 9.59453 14.5994L13.6164 10.5775C13.9414 10.2525 13.9414 9.76504 13.6164 9.44004C13.2914 9.11504 12.8039 9.11504 12.4789 9.44004L9.02578 12.8932L7.19766 11.065C6.87266 10.74 6.38516 10.74 6.06016 11.065C5.73516 11.39 5.73516 11.8775 6.06016 12.2025L8.45703 14.5994Z" fill="#FC212F"/>
</svg>
