<svg width="41" height="40" viewBox="0 0 41 40" fill="none" xmlns="http://www.w3.org/2000/svg">
<rect x="0.900391" y="0.5" width="39" height="39" rx="19.5" fill="black"/>
<rect x="0.900391" y="0.5" width="39" height="39" rx="19.5" stroke="#4A4A4A"/>
<path d="M20.6853 12.673C23.1644 12.673 23.4581 12.6824 24.4371 12.7271C25.3424 12.7684 25.834 12.9197 26.1612 13.0468C26.5946 13.2152 26.9039 13.4165 27.2288 13.7413C27.5537 14.0662 27.755 14.3756 27.9233 14.8089C28.0505 15.1361 28.2018 15.6278 28.2431 16.533C28.2877 17.5121 28.2972 17.8057 28.2972 20.2849C28.2972 22.7641 28.2877 23.0577 28.2431 24.0368C28.2018 24.942 28.0505 25.4337 27.9233 25.7609C27.755 26.1942 27.5537 26.5036 27.2288 26.8285C26.9039 27.1534 26.5946 27.3546 26.1612 27.523C25.834 27.6502 25.3424 27.8014 24.4371 27.8427C23.4582 27.8874 23.1646 27.8968 20.6853 27.8968C18.2059 27.8968 17.9123 27.8874 16.9334 27.8427C16.0281 27.8014 15.5365 27.6502 15.2093 27.523C14.7759 27.3546 14.4666 27.1534 14.1417 26.8285C13.8168 26.5036 13.6156 26.1942 13.4472 25.7609C13.32 25.4337 13.1688 24.9421 13.1274 24.0368C13.0828 23.0577 13.0733 22.7641 13.0733 20.2849C13.0733 17.8057 13.0828 17.5121 13.1274 16.533C13.1688 15.6278 13.32 15.1361 13.4472 14.8089C13.6156 14.3756 13.8168 14.0662 14.1417 13.7413C14.4666 13.4165 14.7759 13.2152 15.2093 13.0468C15.5365 12.9197 16.0281 12.7684 16.9334 12.7271C17.9124 12.6824 18.2061 12.673 20.6853 12.673ZM20.6853 11C18.1636 11 17.8475 11.0107 16.8571 11.0559C15.8688 11.101 15.1939 11.2579 14.6033 11.4875C13.9927 11.7247 13.4749 12.0422 12.9588 12.5584C12.4426 13.0746 12.1251 13.5924 11.8878 14.2029C11.6583 14.7936 11.5013 15.4685 11.4562 16.4568C11.411 17.4471 11.4004 17.7633 11.4004 20.2849C11.4004 22.8066 11.411 23.1227 11.4562 24.113C11.5013 25.1013 11.6583 25.7763 11.8878 26.3669C12.1251 26.9774 12.4426 27.4952 12.9588 28.0114C13.4749 28.5276 13.9927 28.8451 14.6033 29.0824C15.1939 29.3119 15.8688 29.4688 16.8571 29.5139C17.8475 29.5591 18.1636 29.5698 20.6853 29.5698C23.2069 29.5698 23.5231 29.5591 24.5134 29.5139C25.5017 29.4688 26.1766 29.3119 26.7672 29.0824C27.3778 28.8451 27.8956 28.5276 28.4118 28.0114C28.9279 27.4952 29.2454 26.9774 29.4827 26.3669C29.7122 25.7763 29.8692 25.1013 29.9143 24.113C29.9595 23.1227 29.9702 22.8066 29.9702 20.2849C29.9702 17.7633 29.9595 17.4471 29.9143 16.4568C29.8692 15.4685 29.7122 14.7936 29.4827 14.2029C29.2454 13.5924 28.9279 13.0746 28.4118 12.5584C27.8956 12.0422 27.3778 11.7247 26.7672 11.4875C26.1766 11.2579 25.5017 11.101 24.5134 11.0559C23.5231 11.0107 23.2069 11 20.6853 11ZM20.6853 15.517C18.052 15.517 15.9173 17.6517 15.9173 20.2849C15.9173 22.9182 18.052 25.0528 20.6853 25.0528C23.3185 25.0528 25.4532 22.9182 25.4532 20.2849C25.4532 17.6517 23.3185 15.517 20.6853 15.517ZM20.6853 23.3799C18.976 23.3799 17.5903 21.9942 17.5903 20.2849C17.5903 18.5756 18.976 17.1899 20.6853 17.1899C22.3946 17.1899 23.7802 18.5756 23.7802 20.2849C23.7802 21.9942 22.3946 23.3799 20.6853 23.3799ZM26.7557 15.3286C26.7557 15.944 26.2569 16.4428 25.6416 16.4428C25.0262 16.4428 24.5274 15.944 24.5274 15.3286C24.5274 14.7132 25.0262 14.2144 25.6416 14.2144C26.2569 14.2144 26.7557 14.7132 26.7557 15.3286Z" fill="#6B6B6B"/>
</svg>
