<svg width="41" height="40" viewBox="0 0 41 40" fill="none" xmlns="http://www.w3.org/2000/svg">
<rect x="0.699219" y="0.5" width="39" height="39" rx="19.5" fill="black"/>
<rect x="0.699219" y="0.5" width="39" height="39" rx="19.5" stroke="#4A4A4A"/>
<path d="M15.9182 16.416H12.4766V27.3911H15.9182V16.416Z" fill="#6B6B6B"/>
<path d="M25.2282 16.1787C25.1014 16.1629 24.9666 16.1549 24.8317 16.147C22.9048 16.0677 21.8184 17.2096 21.4377 17.7013C21.3346 17.8361 21.287 17.9154 21.287 17.9154V16.4483H17.9961V27.4234H21.287H21.4377C21.4377 26.3053 21.4377 25.1951 21.4377 24.077C21.4377 23.4743 21.4377 22.8716 21.4377 22.269C21.4377 21.5235 21.3822 20.7305 21.7549 20.0486C22.0721 19.4776 22.6431 19.1921 23.2854 19.1921C25.1886 19.1921 25.2282 20.9129 25.2282 21.0715C25.2282 21.0795 25.2282 21.0874 25.2282 21.0874V27.471H28.6699V20.3102C28.6699 17.8599 27.4249 16.4166 25.2282 16.1787Z" fill="#6B6B6B"/>
<path d="M14.1976 14.9967C15.3012 14.9967 16.1959 14.102 16.1959 12.9984C16.1959 11.8947 15.3012 11 14.1976 11C13.0939 11 12.1992 11.8947 12.1992 12.9984C12.1992 14.102 13.0939 14.9967 14.1976 14.9967Z" fill="#6B6B6B"/>
</svg>
