<svg width="26" height="26" viewBox="0 0 26 26" fill="none" xmlns="http://www.w3.org/2000/svg">
<path fill-rule="evenodd" clip-rule="evenodd" d="M13.0013 7.3125C11.0568 7.3125 9.48047 8.88883 9.48047 10.8333C9.48047 12.7778 11.0568 14.3542 13.0013 14.3542C14.9458 14.3542 16.5221 12.7778 16.5221 10.8333C16.5221 8.88883 14.9458 7.3125 13.0013 7.3125ZM11.1055 10.8333C11.1055 9.78629 11.9543 8.9375 13.0013 8.9375C14.0483 8.9375 14.8971 9.78629 14.8971 10.8333C14.8971 11.8804 14.0483 12.7292 13.0013 12.7292C11.9543 12.7292 11.1055 11.8804 11.1055 10.8333Z" fill="#FC212F"/>
<path fill-rule="evenodd" clip-rule="evenodd" d="M13.0013 2.4375C8.36441 2.4375 4.60547 6.19644 4.60547 10.8333C4.60547 12.368 5.13919 13.9228 5.88156 15.3545C6.62759 16.7932 7.61286 18.1621 8.58244 19.3394C9.55401 20.5192 10.5233 21.5229 11.2488 22.2311C11.6121 22.5858 11.9155 22.8675 12.1292 23.0616C12.2361 23.1587 12.3206 23.2339 12.3791 23.2853C12.4083 23.3111 12.431 23.3309 12.4467 23.3446C12.4546 23.3514 12.4607 23.3567 12.465 23.3604L12.4702 23.3649L12.4717 23.3662C12.4717 23.3662 12.4725 23.3669 13.0013 22.75L12.4725 23.3669L13.0013 23.8201L13.5301 23.3669L13.0013 22.75C13.5301 23.3669 13.5301 23.3669 13.5301 23.3669L13.5309 23.3662L13.5325 23.3649L13.5376 23.3604C13.5419 23.3567 13.548 23.3514 13.5559 23.3446C13.5716 23.3309 13.5943 23.3111 13.6236 23.2853C13.682 23.2339 13.7665 23.1587 13.8734 23.0616C14.0871 22.8675 14.3905 22.5858 14.7538 22.2311C15.4793 21.5229 16.4486 20.5192 17.4202 19.3394C18.3897 18.1621 19.375 16.7932 20.121 15.3545C20.8634 13.9228 21.3971 12.368 21.3971 10.8333C21.3971 6.19644 17.6382 2.4375 13.0013 2.4375ZM13.6186 21.0683C13.3828 21.2985 13.174 21.496 13.0013 21.6563C12.8286 21.496 12.6198 21.2985 12.384 21.0683C11.6876 20.3886 10.7611 19.4287 9.83683 18.3064C8.91058 17.1817 8.00002 15.9099 7.32417 14.6065C6.64466 13.296 6.23047 12.007 6.23047 10.8333C6.23047 7.0939 9.26187 4.0625 13.0013 4.0625C16.7407 4.0625 19.7721 7.0939 19.7721 10.8333C19.7721 12.007 19.3579 13.296 18.6784 14.6065C18.0026 15.9099 17.092 17.1817 16.1658 18.3064C15.2415 19.4287 14.315 20.3886 13.6186 21.0683Z" fill="#FC212F"/>
</svg>
