<svg width="26" height="26" viewBox="0 0 26 26" fill="none" xmlns="http://www.w3.org/2000/svg">
<path fill-rule="evenodd" clip-rule="evenodd" d="M5.71508 12.0216C8.18997 15.0465 10.9604 17.8169 13.9853 20.2918L14.765 20.9297C16.1649 22.0752 18.2051 21.9734 19.4841 20.6944L21.4988 18.6797L17.6686 14.8495L14.796 17.7221L8.27326 11.1993L11.1555 8.3363L7.32721 4.50806L5.31251 6.52276C4.03347 7.8018 3.93172 9.84193 5.07714 11.2419L5.71508 12.0216ZM12.9563 21.5495C9.84776 19.0062 7.00071 16.1591 4.45739 13.0506L3.81946 12.2709C2.14538 10.2248 2.2941 7.24308 4.16346 5.37371L7.32721 2.20996L13.4574 8.34014L10.5752 11.2032L14.796 15.424L17.6686 12.5514L23.7969 18.6797L20.6332 21.8434C18.7638 23.7128 15.7821 23.8615 13.736 22.1874L12.9563 21.5495Z" fill="#FC212F"/>
</svg>
