<svg width="20" height="24" viewBox="0 0 20 24" fill="none" xmlns="http://www.w3.org/2000/svg">
<path d="M16.0064 15.8248C14.945 15.8248 13.9886 16.2831 13.3249 17.0123L7.35495 13.3148C7.51433 12.9068 7.60273 12.4636 7.60273 12C7.60273 11.5362 7.51433 11.093 7.35495 10.6852L13.3249 6.98754C13.9886 7.71669 14.945 8.17524 16.0064 8.17524C18.0059 8.17524 19.6326 6.54859 19.6326 4.54908C19.6326 2.54958 18.0059 0.923096 16.0064 0.923096C14.0069 0.923096 12.3803 2.54975 12.3803 4.54925C12.3803 5.01288 12.4688 5.45605 12.628 5.86406L6.65825 9.56154C5.99451 8.83239 5.03819 8.37384 3.97674 8.37384C1.97724 8.37384 0.350586 10.0007 0.350586 12C0.350586 13.9995 1.97724 15.6262 3.97674 15.6262C5.03819 15.6262 5.99451 15.1678 6.65825 14.4384L12.628 18.1359C12.4688 18.5439 12.3803 18.9871 12.3803 19.4509C12.3803 21.4502 14.0069 23.0769 16.0064 23.0769C18.0059 23.0769 19.6326 21.4502 19.6326 19.4509C19.6326 17.4514 18.0059 15.8248 16.0064 15.8248ZM13.7025 4.54925C13.7025 3.2789 14.7361 2.24534 16.0064 2.24534C17.2768 2.24534 18.3103 3.2789 18.3103 4.54925C18.3103 5.81961 17.2768 6.85317 16.0064 6.85317C14.7361 6.85317 13.7025 5.81961 13.7025 4.54925ZM3.97674 14.3039C2.70622 14.3039 1.67266 13.2704 1.67266 12C1.67266 10.7296 2.70622 9.69608 3.97674 9.69608C5.2471 9.69608 6.28049 10.7296 6.28049 12C6.28049 13.2704 5.2471 14.3039 3.97674 14.3039ZM13.7025 19.4507C13.7025 18.1804 14.7361 17.1468 16.0064 17.1468C17.2768 17.1468 18.3103 18.1804 18.3103 19.4507C18.3103 20.7211 17.2768 21.7547 16.0064 21.7547C14.7361 21.7547 13.7025 20.7211 13.7025 19.4507Z" fill="white"/>
</svg>
