<svg width="442" height="52" viewBox="0 0 442 52" fill="none" xmlns="http://www.w3.org/2000/svg">
<path d="M9.21719 12.44L17.2172 30.84L25.2572 12.44H32.8972L40.9372 30.84L48.8972 12.44H57.6572L44.7772 41H37.1372L29.0972 23L20.9772 41H13.3372L0.457187 12.44H9.21719ZM71.1909 23.48H91.2309V12.44H99.5109V41H91.2309V29.48H71.1909V41H62.9509V12.44H71.1909V23.48ZM119.965 41V31.56L104.125 12.44H113.965L124.085 25.04L134.205 12.44H144.005L128.245 31.48V41H119.965ZM168.293 41L186.133 12.44H194.453L212.333 41H202.933L199.373 34.96H181.253L177.693 41H168.293ZM184.493 29.36H196.133L190.293 19.72L184.493 29.36ZM249.721 14.28V20.96C246.001 19.48 238.801 18.12 233.521 18.12C227.961 18.12 224.161 18.76 224.161 21.04C224.161 23.32 230.121 23.32 233.801 23.44C242.121 23.76 252.561 24.32 252.561 32.04C252.561 39.48 243.161 41.48 234.241 41.48C227.441 41.48 220.801 39.92 216.121 38.16V31.32C221.321 34 227.641 35.28 234.241 35.28C241.521 35.28 244.121 33.68 244.121 32.24C244.121 30.08 239.481 29.8 233.921 29.64C225.321 29.36 215.721 28.6 215.721 21.04C215.721 13.32 226.081 11.96 233.521 11.96C238.801 11.96 245.121 12.84 249.721 14.28ZM255.595 18.44V12.44H290.835V18.44H277.355V41H269.075V18.44H255.595ZM297.348 41V12.44H320.588C329.028 12.44 333.268 15.76 333.268 21.56C333.268 25.92 330.748 29.32 325.108 30.4L334.188 41H324.068L315.828 30.76H305.588V41H297.348ZM305.588 18.44V24.76H319.388C323.068 24.76 324.828 23.8 324.828 21.56C324.828 19.36 323.148 18.44 319.388 18.44H305.588ZM338.434 41L356.274 12.44H364.594L382.474 41H373.074L369.514 34.96H351.394L347.834 41H338.434ZM354.634 29.36H366.274L360.434 19.72L354.634 29.36Z" fill="#FAFAF9"/>
<path d="M418.324 12L427.46 26L418.324 40H432.364L441.5 26L432.364 12H418.324Z" fill="#FC212F"/>
<path d="M397.5 12L406.636 26L397.5 40H411.54L420.676 26L411.54 12H397.5Z" fill="#FC212F"/>
</svg>
