<svg width="40" height="40" viewBox="0 0 40 40" fill="none" xmlns="http://www.w3.org/2000/svg">
<rect x="0.5" y="0.5" width="39" height="39" rx="19.5" fill="black"/>
<rect x="0.5" y="0.5" width="39" height="39" rx="19.5" stroke="#4A4A4A"/>
<path d="M28.3345 16.1967C27.9049 15.1825 27.2881 14.272 26.505 13.4873C25.7219 12.71 24.814 12.0956 23.8022 11.6662C22.7557 11.2221 21.6469 11 20.5034 11C19.3599 11 18.2511 11.2221 17.2046 11.6662C16.1928 12.0956 15.2849 12.7026 14.5018 13.4873C13.7187 14.272 13.1019 15.1825 12.6722 16.1967C12.2287 17.2478 12 18.3731 12 19.5279C12 21.5488 12.7069 23.4883 14.0028 25.028L13.3098 29.0625L16.9967 27.3081C18.0986 27.8114 19.2698 28.0631 20.4965 28.0631C21.6399 28.0631 22.7488 27.8411 23.7952 27.3969C24.8071 26.9675 25.7149 26.3605 26.498 25.5758C27.2811 24.7912 27.8979 23.8806 28.3276 22.8665C28.7711 21.8153 28.9998 20.6901 28.9998 19.5353C29.0068 18.3731 28.7781 17.2553 28.3345 16.1967Z" fill="#6B6B6B"/>
<path d="M24.129 20.6295C23.756 20.443 23.4835 20.3283 23.2899 20.2566C23.1679 20.2135 22.8811 20.0844 22.7806 20.1633C22.4651 20.4215 22.128 21.1531 21.7694 21.2893C20.88 21.1172 20.0552 20.5076 19.4097 19.8836C19.1229 19.6111 18.5921 18.8365 18.4774 18.6285C18.4558 18.4133 18.8431 18.1264 18.9292 17.9615C19.3739 17.4594 19.0368 17.1439 18.9794 16.9359C18.879 16.7207 18.7069 16.3334 18.5563 16.0178C18.4272 15.8098 18.3984 15.5014 18.1689 15.3867C17.1935 14.8846 16.6341 15.8887 16.4046 16.4123C15.0204 19.7473 23.3401 26.0947 25.0327 21.7197C25.1187 21.3395 25.0829 21.1961 24.9538 21.024C24.6956 20.8447 24.3944 20.7658 24.129 20.6295Z" fill="black"/>
</svg>
